<svg xmlns="http://www.w3.org/2000/svg" width="21.86" height="22.036" viewBox="0 0 21.86 22.036">
  <g id="Group_295" data-name="Group 295" transform="translate(-230.14 -1282.001)">
    <path id="Path_431" data-name="Path 431" d="M246.686,1283.486a10.748,10.748,0,0,1,3.853,14.683,10.863,10.863,0,0,1-3.853,3.853,10.763,10.763,0,0,1-10.6.126l-5.943,1.889,1.939-5.742a10.764,10.764,0,0,1-.076-10.956,10.681,10.681,0,0,1,14.682-3.853Zm.025,12.164a.911.911,0,0,0-.025-.416.487.487,0,0,0-.176-.164c.05.034-.059-.025-.327-.176q-1.612-.78-1.788-.831a.523.523,0,0,0-.655.176q-.554.755-.705.958a.614.614,0,0,1-.3.125.645.645,0,0,1-.353-.05q-.529-.226-.781-.353a8.377,8.377,0,0,1-1.335-.932,7.789,7.789,0,0,1-1.461-1.838.391.391,0,0,1-.05-.327.826.826,0,0,1,.151-.227l.4-.428a1.927,1.927,0,0,0,.315-.441.512.512,0,0,0-.063-.466l-.806-1.964a.87.87,0,0,0-.239-.353.612.612,0,0,0-.34-.076l-.3-.025a1.174,1.174,0,0,0-.907.328,3.939,3.939,0,0,0-.579.705,3.076,3.076,0,0,0-.353,1.485,4.734,4.734,0,0,0,1.058,2.72q-.177-.252.277.378a8.707,8.707,0,0,0,.6.781q.453.53.932,1.007.6.554,1.209,1.008a7.576,7.576,0,0,0,1.486.806,10.382,10.382,0,0,0,2.166.7,2.739,2.739,0,0,0,.982-.025,3.236,3.236,0,0,0,1.083-.454,1.7,1.7,0,0,0,.705-.83A2.8,2.8,0,0,0,246.711,1295.65Z" transform="translate(0)" fill="#fff"/>
  </g>
</svg>
